# xmcd
#
# Track frame offsets:
#	150
#	19130
#	39757
#	58220
#	75560
#	93722
#	111577
#	125852
#	139557
#	154497
#	174952
#	193950
#	214815
#	233317
#	250667
#	268717
#	286342
#	300625
#	314430
#
# Disc length: 4392 seconds
#
# Revision: 1
# Processed by: cddbd v1.5.2PL0 Copyright (c) Steve Scherf et al.
# Submitted via: audiograbber 1.82.01
#
DISCID=11112613
DTITLE=Vino Santos - Corinhos Fogo Vol 1
DYEAR=2006
DGENRE=Gospel
TTITLE0=Olha o Gigante
TTITLE1=Vai abrir a porta
TTITLE2=Toca Fogo
TTITLE3=Deixa Deus te Usar
TTITLE4=Tire as Sandalias
TTITLE5=Jaco II
TTITLE6=Fumega
TTITLE7=Beba Gloria e Coma Aleluia
TTITLE8=Foi Sim
TTITLE9=Volte para Cristo
TTITLE10=PB
TTITLE11=PB
TTITLE12=PB
TTITLE13=PB
TTITLE14=PB
TTITLE15=PB
TTITLE16=PB
TTITLE17=PB
TTITLE18=PB
EXTD=
EXTT0=
EXTT1=
EXTT2=
EXTT3=
EXTT4=
EXTT5=
EXTT6=
EXTT7=
EXTT8=
EXTT9=
EXTT10=
EXTT11=
EXTT12=
EXTT13=
EXTT14=
EXTT15=
EXTT16=
EXTT17=
EXTT18=
PLAYORDER=
